<?xml version="1.0" encoding="UTF-8" standalone="no"?>
<svg width="939px" height="591px" viewBox="0 0 939 591" version="1.1" xmlns="http://www.w3.org/2000/svg"
     xmlns:sketch="http://www.bohemiancoding.com/sketch/ns">
    <!-- Generator: Sketch 3.4.2 (15855) - http://www.bohemiancoding.com/sketch -->
    <title>Slice 1 Copy</title>
    <desc>Created with Sketch.</desc>
    <defs>
        <linearGradient x1="86.378418%" y1="40.0932601%" x2="36.3475642%" y2="62.5823848%" id="linearGradient-1">
            <stop stop-color="#FFFFFF" offset="0%"></stop>
            <stop stop-color="#F3F3F3" offset="100%"></stop>
        </linearGradient>
        <linearGradient x1="99.8263508%" y1="42.4664367%" x2="29.3383209%" y2="51.8984666%" id="linearGradient-2">
            <stop stop-color="#FAFAFA" offset="0%"></stop>
            <stop stop-color="#E9E9E9" offset="100%"></stop>
        </linearGradient>
        <linearGradient x1="66.9041953%" y1="83.9975584%" x2="38.9744347%" y2="11.113482%" id="linearGradient-3">
            <stop stop-color="#FFFFFF" offset="0%"></stop>
            <stop stop-color="#D2D2D2" offset="100%"></stop>
        </linearGradient>
        <linearGradient x1="-2.58165375%" y1="51.6644051%" x2="48.0465116%" y2="43.4542273%" id="linearGradient-4">
            <stop stop-color="#F6F6F6" offset="0%"></stop>
            <stop stop-color="#DFDFDF" offset="100%"></stop>
        </linearGradient>
        <linearGradient x1="0.9798627%" y1="52.599455%" x2="68.0034325%" y2="44.5316229%" id="linearGradient-5">
            <stop stop-color="#FEFEFE" offset="0%"></stop>
            <stop stop-color="#E0E0E0" offset="100%"></stop>
        </linearGradient>
        <linearGradient x1="1.28014019%" y1="21.606887%" x2="74.9550234%" y2="57.3898249%" id="linearGradient-6">
            <stop stop-color="#FFFFFF" offset="0%"></stop>
            <stop stop-color="#D2D2D2" offset="100%"></stop>
        </linearGradient>
    </defs>
    <g id="Page-1" stroke="none" stroke-width="1" fill="none" fill-rule="evenodd" sketch:type="MSPage">
        <g id="logo_paloma" sketch:type="MSLayerGroup">
            <g id="Slice-1" sketch:type="MSShapeGroup">
                <g id="Page-1">
                    <g id="paloma_logo_green-(1)">
                        <g id="Group">
                            <path d="M66.3,369.1 L205.4,346.3 L228.3,192.9 L257.2,0 L66.3,369.1 Z" id="Shape" fill="url(#linearGradient-1)"></path>
                            <path d="M325.7,113.4 L205.4,346.3 L228.3,192.9" id="Shape" fill="url(#linearGradient-2)"></path>
                            <path d="M205.4,346.3 L66.3,369.1 L216.4,467.8 L306.1,534.7 L205.4,346.3 Z" id="Shape" fill="url(#linearGradient-3)"></path>
                            <path d="M267.4,505.8 L267.4,590.6 L306.1,534.7 L267.4,505.8 Z" id="Shape" fill="url(#linearGradient-4)"></path>
                            <path d="M19.2,275.4 L0,346.3 L43.7,324.1 L19.2,275.4 Z" id="Shape" fill="url(#linearGradient-5)"></path>
                            <path d="M19.2,275.4 L66.3,369.1 L104.8,294.7 L19.2,275.4 Z" id="Shape" fill="url(#linearGradient-6)"></path>
                            <path d="M516.2,400.6 L516.2,296.5 L539.2,296.5 L539.2,379.7 L579.8,379.7 L579.8,400.6 L516.2,400.6 L516.2,400.6 Z" id="Shape" fill="#FFFFFF"></path>
                            <path d="M598,310.5 C608.9,300 622,294.8 637.4,294.8 C652.8,294.8 665.9,300 676.7,310.5 C687.6,321 693,333.7 693,348.7 C693,363.8 687.6,376.6 676.9,387.1 C666.1,397.4 653,402.6 637.5,402.6 C622.1,402.6 609,397.4 598.1,387.1 C587.3,376.6 582,363.8 582,348.7 C581.8,333.6 587.2,321 598,310.5 L598,310.5 L598,310.5 Z M614.2,372.3 C620.5,378.6 628.2,381.7 637.4,381.7 C646.5,381.7 654.1,378.6 660.4,372.1 C666.8,365.7 670,357.8 670,348.6 C670,339.5 666.9,331.7 660.6,325.3 C654.3,318.9 646.6,315.6 637.4,315.6 C628.3,315.6 620.5,318.9 614.2,325.3 C607.9,331.7 604.8,339.5 604.8,348.6 C604.8,358.1 608,365.9 614.2,372.3 L614.2,372.3 L614.2,372.3 Z" id="Shape" fill="#FFFFFF"></path>
                            <path d="M708.3,400.6 L708.3,292.7 L763.3,352.6 L818.3,292.7 L818.3,400.5 L796.2,400.5 L796.2,347.6 L763.3,384.5 L730.4,347.6 L730.4,400.5 L708.3,400.5 L708.3,400.6 Z" id="Shape" fill="#FFFFFF"></path>
                            <path d="M450.2,290.5 L396,400.6 L420.4,400.6 L450.1,337.1 L480,400.6 L504.5,400.6 L450.2,290.5 Z" id="Shape" fill="#FFFFFF"></path>
                            <path d="M884.3,290.5 L830.1,400.6 L854.4,400.6 L884.1,337.1 L914,400.6 L938.5,400.6 L884.3,290.5 Z" id="Shape" fill="#FFFFFF"></path>
                            <path d="M394.8,306.1 C387.5,299.7 379.6,296.4 370.8,296.4 L326.9,296.4 L326.9,400.5 L349.9,400.5 L349.9,375.7 L349.9,366.9 L349.9,346 L349.9,337.6 L349.9,317.4 L369.5,317.4 C372.6,317.4 375.8,318.6 378.6,320.8 C381.4,323 382.9,326.6 382.9,331.7 C382.9,336.8 381.4,340.5 378.6,342.8 C375.8,345 372.6,346.1 369.5,346.1 L358,367 L370.9,367.1 C380,367.1 388.1,363.8 395.2,357.1 C402.4,350.4 406,342 406,331.9 C405.8,321 402.1,312.5 394.8,306.1 L394.8,306.1 L394.8,306.1 Z" id="Shape" fill="#FFFFFF"></path>
                        </g>
                    </g>
                </g>
            </g>
        </g>
    </g>
</svg>