<svg width="390px" height="164px" viewBox="0 0 390 164" version="1.1" xmlns="http://www.w3.org/2000/svg">
    <defs>
        <linearGradient x1="59.8218931%" y1="40.0932601%" x2="46.3139473%" y2="62.5823848%" id="linearGradient-1">
            <stop stop-color="#CBDC44" offset="0%"></stop>
            <stop stop-color="#86A63F" offset="100%"></stop>
        </linearGradient>
        <linearGradient x1="63.6329613%" y1="42.4664367%" x2="44.346769%" y2="51.8984666%" id="linearGradient-2">
            <stop stop-color="#CBDC44" offset="0%"></stop>
            <stop stop-color="#72903B" offset="100%"></stop>
        </linearGradient>
        <linearGradient x1="66.9041953%" y1="70.4788144%" x2="38.9744347%" y2="26.5762654%" id="linearGradient-3">
            <stop stop-color="#CCDC47" offset="0%"></stop>
            <stop stop-color="#77973E" offset="100%"></stop>
        </linearGradient>
        <linearGradient x1="38.9542012%" y1="51.6644051%" x2="49.5896318%" y2="43.4542273%" id="linearGradient-4">
            <stop stop-color="#CCDC47" offset="0%"></stop>
            <stop stop-color="#86A63F" offset="100%"></stop>
        </linearGradient>
        <linearGradient x1="30.446261%" y1="52.599455%" x2="57.1814246%" y2="44.5316229%" id="linearGradient-5">
            <stop stop-color="#CCDC47" offset="0%"></stop>
            <stop stop-color="#86A63F" offset="100%"></stop>
        </linearGradient>
        <linearGradient x1="8.48722004%" y1="21.606887%" x2="71.2634519%" y2="57.3898249%" id="linearGradient-6">
            <stop stop-color="#CCDC47" offset="0%"></stop>
            <stop stop-color="#73913B" offset="100%"></stop>
        </linearGradient>
    </defs>
    <g id="Page-1" stroke="none" stroke-width="1" fill="none" fill-rule="evenodd">
        <g id="Desktop-HD" transform="translate(-363.000000, -716.000000)" fill-rule="nonzero">
            <g id="Group-4" transform="translate(363.000000, 716.000000)">
                <g id="paloma-logo-copy">
                    <polygon id="Shape" fill="url(#linearGradient-1)" points="18 102 56.6186485 95.6992685 62.9764274 53.3075047 71 0"></polygon>
                    <polyline id="Shape" fill="url(#linearGradient-2)" points="91 32 57 97 63.472153 54.1876342"></polyline>
                    <polygon id="Shape" fill="url(#linearGradient-3)" points="56.8644704 96 18 102.292994 59.9378649 129.535032 85 148"></polygon>
                    <polygon id="Shape" fill="url(#linearGradient-4)" points="74 140 74 164 85 148.179245"></polygon>
                    <polygon id="Shape" fill="url(#linearGradient-5)" points="5.27231121 77 0 96 12 90.0507757"></polygon>
                    <polygon id="Shape" fill="url(#linearGradient-6)" points="5 76 18.2056075 102 29 81.3553895"></polygon>
                </g>
                <g id="Group-3" transform="translate(101.000000, 66.000000)" fill="#494D45">
                    <polygon id="Shape" points="90 52 90 3 100.849057 3 100.849057 42.1623439 120 42.1623439 120 52"></polygon>
                    <path d="M128.497644,9.42764378 C133.603704,4.46011132 139.740344,2 146.95441,2 C154.168477,2 160.305117,4.46011132 165.364333,9.42764378 C170.470392,14.3951763 173,20.403525 173,27.5 C173,34.6437848 170.470392,40.6994434 165.458022,45.6669759 C160.398806,50.5398887 154.262166,53 147.001255,53 C139.787189,53 133.650548,50.5398887 128.544488,45.6669759 C123.485273,40.6994434 121.00251,34.6437848 121.00251,27.5 C120.908821,20.3562152 123.438429,14.3951763 128.497644,9.42764378 L128.497644,9.42764378 Z M136.086467,38.6651206 C139.037675,41.6456401 142.644709,43.1122449 146.95441,43.1122449 C151.217268,43.1122449 154.777456,41.6456401 157.728665,38.5705009 C160.726719,35.5426716 162.225745,31.8051948 162.225745,27.4526902 C162.225745,23.1474954 160.773563,19.4573284 157.822354,16.4294991 C154.871145,13.4016698 151.264112,11.8404453 146.95441,11.8404453 C142.691553,11.8404453 139.037675,13.4016698 136.086467,16.4294991 C133.135258,19.4573284 131.683076,23.1474954 131.683076,27.4526902 C131.683076,31.9471243 133.182102,35.6372913 136.086467,38.6651206 L136.086467,38.6651206 Z" id="Shape"></path>
                    <polygon id="Shape" points="180 52 180 1 206 29.3123262 232 1 232 51.952734 221.552727 51.952734 221.552727 26.9490269 206 44.3901761 190.447273 26.9490269 190.447273 51.952734 180 51.952734"></polygon>
                    <polygon id="Shape" points="58.4764977 0 33 52 44.4691244 52 58.4294931 22.0090827 72.483871 52 84 52"></polygon>
                    <polygon id="Shape" points="263.5 0 238 52 249.432657 52 263.405904 22.0090827 277.473247 52 289 52"></polygon>
                    <path d="M31.7610619,7.56580211 C28.346397,4.55331412 24.6510746,3 20.5347661,3 L0,3 L0,52 L10.7585335,52 L10.7585335,40.326609 L10.7585335,36.184438 L10.7585335,26.3467819 L10.7585335,22.3928915 L10.7585335,12.8847262 L19.9266751,12.8847262 C21.3767383,12.8847262 22.8735777,13.4495677 24.1833123,14.4851105 C25.4930468,15.5206532 26.1946903,17.2151777 26.1946903,19.6157541 C26.1946903,22.0163305 25.4930468,23.7579251 24.1833123,24.8405379 C22.8735777,25.8760807 21.3767383,26.3938521 19.9266751,26.3938521 L14.5474083,36.2315082 L20.5815424,36.2785783 C24.8381795,36.2785783 28.6270544,34.7252642 31.9481669,31.5715658 C35.3160556,28.4178674 37,24.4639769 37,19.7098943 C36.9064475,14.5792507 35.1757269,10.5782901 31.7610619,7.56580211 L31.7610619,7.56580211 Z" id="Shape"></path>
                </g>
            </g>
        </g>
    </g>
</svg>