<?xml version="1.0" encoding="UTF-8" standalone="no"?>
<svg width="939px" height="591px" viewBox="0 0 939 591" version="1.1" xmlns="http://www.w3.org/2000/svg">
    <!-- Generator: Sketch 39.1 (31720) - http://www.bohemiancoding.com/sketch -->
    <title>Slice 1</title>
    <desc>Created with Sketch.</desc>
    <defs>
        <linearGradient x1="86.378418%" y1="12.9654565%" x2="36.3475642%" y2="97.0369548%" id="linearGradient-1">
            <stop stop-color="#CBDC44" offset="0%"></stop>
            <stop stop-color="#86A63F" offset="100%"></stop>
        </linearGradient>
        <linearGradient x1="99.8263508%" y1="21.7636754%" x2="29.3383209%" y2="57.1155861%" id="linearGradient-2">
            <stop stop-color="#CBDC44" offset="0%"></stop>
            <stop stop-color="#72903B" offset="100%"></stop>
        </linearGradient>
        <linearGradient x1="77.3861551%" y1="83.9975584%" x2="32.1376981%" y2="11.113482%" id="linearGradient-3">
            <stop stop-color="#CCDC47" offset="0%"></stop>
            <stop stop-color="#77973E" offset="100%"></stop>
        </linearGradient>
        <linearGradient x1="-2.58165375%" y1="57.9915094%" x2="48.0465116%" y2="18.5709906%" id="linearGradient-4">
            <stop stop-color="#CCDC47" offset="0%"></stop>
            <stop stop-color="#86A63F" offset="100%"></stop>
        </linearGradient>
        <linearGradient x1="0.9798627%" y1="56.8424542%" x2="68.0034325%" y2="35.6057828%" id="linearGradient-5">
            <stop stop-color="#CCDC47" offset="0%"></stop>
            <stop stop-color="#86A63F" offset="100%"></stop>
        </linearGradient>
        <linearGradient x1="1.28014019%" y1="15.9791889%" x2="74.9550234%" y2="58.8545358%" id="linearGradient-6">
            <stop stop-color="#CCDC47" offset="0%"></stop>
            <stop stop-color="#73913B" offset="100%"></stop>
        </linearGradient>
    </defs>
    <g id="Page-1" stroke="none" stroke-width="1" fill="none" fill-rule="evenodd">
        <g id="paloma_logo_green-(1)">
            <g id="Group">
                <polygon id="Shape" fill="url(#linearGradient-1)" points="66.3 369.1 205.4 346.3 228.3 192.9 257.2 0"></polygon>
                <polyline id="Shape" fill="url(#linearGradient-2)" points="325.7 113.4 205.4 346.3 228.3 192.9"></polyline>
                <polygon id="Shape" fill="url(#linearGradient-3)" points="205.4 346.3 66.3 369.1 216.4 467.8 306.1 534.7"></polygon>
                <polygon id="Shape" fill="url(#linearGradient-4)" points="267.4 505.8 267.4 590.6 306.1 534.7"></polygon>
                <polygon id="Shape" fill="url(#linearGradient-5)" points="19.2 275.4 0 346.3 43.7 324.1"></polygon>
                <polygon id="Shape" fill="url(#linearGradient-6)" points="19.2 275.4 66.3 369.1 104.8 294.7"></polygon>
                <polygon id="Shape" fill="#494D45" points="516.2 400.6 516.2 296.5 539.2 296.5 539.2 379.7 579.8 379.7 579.8 400.6 516.2 400.6"></polygon>
                <path d="M598,310.5 C608.9,300 622,294.8 637.4,294.8 C652.8,294.8 665.9,300 676.7,310.5 C687.6,321 693,333.7 693,348.7 C693,363.8 687.6,376.6 676.9,387.1 C666.1,397.4 653,402.6 637.5,402.6 C622.1,402.6 609,397.4 598.1,387.1 C587.3,376.6 582,363.8 582,348.7 C581.8,333.6 587.2,321 598,310.5 L598,310.5 Z M614.2,372.3 C620.5,378.6 628.2,381.7 637.4,381.7 C646.5,381.7 654.1,378.6 660.4,372.1 C666.8,365.7 670,357.8 670,348.6 C670,339.5 666.9,331.7 660.6,325.3 C654.3,318.9 646.6,315.6 637.4,315.6 C628.3,315.6 620.5,318.9 614.2,325.3 C607.9,331.7 604.8,339.5 604.8,348.6 C604.8,358.1 608,365.9 614.2,372.3 L614.2,372.3 Z" id="Shape" fill="#494D45"></path>
                <polygon id="Shape" fill="#494D45" points="708.3 400.6 708.3 292.7 763.3 352.6 818.3 292.7 818.3 400.5 796.2 400.5 796.2 347.6 763.3 384.5 730.4 347.6 730.4 400.5 708.3 400.5"></polygon>
                <polygon id="Shape" fill="#494D45" points="450.2 290.5 396 400.6 420.4 400.6 450.1 337.1 480 400.6 504.5 400.6"></polygon>
                <polygon id="Shape" fill="#494D45" points="884.3 290.5 830.1 400.6 854.4 400.6 884.1 337.1 914 400.6 938.5 400.6"></polygon>
                <path d="M394.8,306.1 C387.5,299.7 379.6,296.4 370.8,296.4 L326.9,296.4 L326.9,400.5 L349.9,400.5 L349.9,375.7 L349.9,366.9 L349.9,346 L349.9,337.6 L349.9,317.4 L369.5,317.4 C372.6,317.4 375.8,318.6 378.6,320.8 C381.4,323 382.9,326.6 382.9,331.7 C382.9,336.8 381.4,340.5 378.6,342.8 C375.8,345 372.6,346.1 369.5,346.1 L358,367 L370.9,367.1 C380,367.1 388.1,363.8 395.2,357.1 C402.4,350.4 406,342 406,331.9 C405.8,321 402.1,312.5 394.8,306.1 L394.8,306.1 Z" id="Shape" fill="#494D45"></path>
            </g>
        </g>
    </g>
</svg>